<?xml version="1.0" encoding="UTF-8" standalone="no"?>
<!DOCTYPE svg PUBLIC "-//W3C//DTD SVG 1.1//EN" "http://www.w3.org/Graphics/SVG/1.1/DTD/svg11.dtd">
<svg width="100%" height="100%" viewBox="0 0 300 300" version="1.1" xmlns="http://www.w3.org/2000/svg" xmlns:xlink="http://www.w3.org/1999/xlink" xml:space="preserve" xmlns:serif="http://www.serif.com/" style="fill-rule:evenodd;clip-rule:evenodd;stroke-linejoin:round;stroke-miterlimit:2;">
    <g transform="matrix(1.07186,0,0,1.07186,-36.1255,-40.6603)">
        <g transform="matrix(1.58556,0,0,1.58556,160.889,284.946)">
            <g id="_-ep-" serif:id="(ep)">
                <g>
                    <g transform="matrix(76.879,0,0,76.879,0,0)">
                        <path d="M0.259,-0.128C0.264,-0.126 0.269,-0.125 0.274,-0.125C0.28,-0.124 0.285,-0.124 0.29,-0.124C0.303,-0.124 0.316,-0.126 0.328,-0.129C0.34,-0.133 0.351,-0.138 0.362,-0.145C0.372,-0.151 0.382,-0.16 0.39,-0.169C0.398,-0.179 0.405,-0.189 0.41,-0.201L0.508,-0.103C0.495,-0.085 0.481,-0.07 0.465,-0.056C0.449,-0.042 0.432,-0.03 0.413,-0.02C0.394,-0.01 0.374,-0.003 0.354,0.002C0.333,0.007 0.312,0.01 0.29,0.01C0.253,0.01 0.219,0.003 0.186,-0.011C0.154,-0.024 0.126,-0.043 0.101,-0.068C0.077,-0.092 0.058,-0.121 0.044,-0.155C0.03,-0.189 0.023,-0.226 0.023,-0.266C0.023,-0.307 0.03,-0.345 0.044,-0.379C0.058,-0.414 0.077,-0.443 0.101,-0.467C0.126,-0.491 0.154,-0.51 0.186,-0.523C0.219,-0.536 0.253,-0.543 0.29,-0.543C0.312,-0.543 0.333,-0.54 0.354,-0.535C0.375,-0.53 0.395,-0.522 0.413,-0.513C0.432,-0.503 0.45,-0.491 0.466,-0.477C0.482,-0.463 0.496,-0.447 0.509,-0.429L0.259,-0.128ZM0.327,-0.403C0.321,-0.405 0.315,-0.407 0.309,-0.407C0.303,-0.408 0.297,-0.408 0.29,-0.408C0.272,-0.408 0.255,-0.405 0.239,-0.398C0.222,-0.392 0.208,-0.382 0.197,-0.37C0.185,-0.357 0.175,-0.342 0.168,-0.325C0.162,-0.308 0.158,-0.288 0.158,-0.266C0.158,-0.261 0.158,-0.256 0.159,-0.25C0.159,-0.243 0.16,-0.237 0.161,-0.231C0.163,-0.224 0.164,-0.218 0.166,-0.212C0.167,-0.207 0.169,-0.201 0.172,-0.197L0.327,-0.403Z" style="fill:rgb(29,36,43);fill-rule:nonzero;"/>
                    </g>
                    <g transform="matrix(76.879,0,0,76.879,40.354,0)">
                        <path d="M0.185,0.199L0.051,0.199L0.051,-0.523L0.083,-0.523L0.136,-0.46C0.148,-0.471 0.161,-0.482 0.176,-0.492C0.19,-0.502 0.205,-0.511 0.22,-0.518C0.236,-0.526 0.252,-0.531 0.269,-0.536C0.285,-0.54 0.302,-0.542 0.319,-0.542C0.356,-0.542 0.39,-0.535 0.423,-0.522C0.455,-0.509 0.483,-0.49 0.508,-0.466C0.532,-0.442 0.551,-0.413 0.565,-0.379C0.579,-0.345 0.586,-0.307 0.586,-0.266C0.586,-0.223 0.579,-0.184 0.565,-0.15C0.551,-0.116 0.532,-0.087 0.508,-0.063C0.483,-0.039 0.455,-0.021 0.423,-0.008C0.39,0.005 0.356,0.011 0.319,0.011C0.307,0.011 0.295,0.01 0.284,0.007C0.272,0.005 0.261,0.001 0.25,-0.003C0.239,-0.008 0.227,-0.013 0.217,-0.018C0.206,-0.024 0.195,-0.029 0.185,-0.035L0.185,0.199ZM0.452,-0.266C0.452,-0.288 0.449,-0.308 0.442,-0.326C0.435,-0.343 0.425,-0.358 0.413,-0.37C0.401,-0.383 0.387,-0.392 0.371,-0.398C0.354,-0.405 0.337,-0.408 0.319,-0.408C0.301,-0.408 0.283,-0.405 0.267,-0.398C0.251,-0.392 0.237,-0.383 0.225,-0.37C0.213,-0.358 0.204,-0.343 0.197,-0.326C0.19,-0.308 0.186,-0.288 0.186,-0.266C0.186,-0.245 0.19,-0.226 0.197,-0.208C0.204,-0.19 0.213,-0.175 0.225,-0.163C0.237,-0.151 0.251,-0.141 0.267,-0.134C0.283,-0.127 0.301,-0.124 0.319,-0.124C0.337,-0.124 0.354,-0.127 0.371,-0.134C0.387,-0.141 0.401,-0.151 0.413,-0.163C0.425,-0.175 0.435,-0.19 0.442,-0.208C0.449,-0.226 0.452,-0.245 0.452,-0.266Z" style="fill:rgb(29,36,43);fill-rule:nonzero;"/>
                    </g>
                </g>
            </g>
        </g>
        <g transform="matrix(1.58556,0,0,1.58556,102.698,-144.895)">
            <circle cx="122.1" cy="279.16" r="7.253" style="fill:rgb(233,83,29);"/>
        </g>
        <g transform="matrix(1.20815,0,0,1.20815,8.00825,-9.66256)">
            <g transform="matrix(-1,0,0,-1,176.065,305.241)">
                <path d="M150,150L41.259,150C41.259,90.772 88.714,42.539 147.644,41.284C148.264,41.273 148.863,41.512 149.305,41.947C149.748,42.382 149.997,42.977 149.997,43.597C150,59.404 150,150 150,150Z" style="fill:rgb(23,55,73);"/>
            </g>
            <g transform="matrix(6.12323e-17,1,1,-6.12323e-17,-15.1935,5.24098)">
                <path d="M150,150L41.259,150C41.259,89.984 89.984,41.259 150,41.259L150,150Z" style="fill:rgb(233,83,29);"/>
            </g>
            <g transform="matrix(6.12323e-17,-1,-1,-6.12323e-17,284.806,196.5)">
                <path d="M150,150L41.259,150C41.259,90.772 88.714,42.539 147.644,41.284C148.264,41.273 148.863,41.512 149.305,41.947C149.748,42.382 149.997,42.977 149.997,43.597C150,59.404 150,150 150,150Z" style="fill:rgb(0,96,80);"/>
            </g>
        </g>
    </g>
</svg>
