<?xml version="1.0" encoding="UTF-8" standalone="no"?>
<!DOCTYPE svg PUBLIC "-//W3C//DTD SVG 1.1//EN" "http://www.w3.org/Graphics/SVG/1.1/DTD/svg11.dtd">
<svg width="100%" height="100%" viewBox="0 0 2560 500" version="1.1" xmlns="http://www.w3.org/2000/svg" xmlns:xlink="http://www.w3.org/1999/xlink" xml:space="preserve" xmlns:serif="http://www.serif.com/" style="fill-rule:evenodd;clip-rule:evenodd;stroke-linejoin:round;stroke-miterlimit:2;">
    <g transform="matrix(0.60675,0,0,1.00381,-134.438,-247.028)">
        <g transform="matrix(579.359,0,0,579.359,227.99,615.34)">
            <path d="M0.298,-0.37L0.298,-0.294L0.237,-0.294L0.237,-0.37L0.114,-0.494L0.114,-0.049L0.054,-0.049L0.054,-0.566C0.054,-0.579 0.06,-0.589 0.073,-0.594C0.076,-0.595 0.079,-0.596 0.084,-0.596C0.092,-0.596 0.099,-0.593 0.105,-0.587L0.266,-0.426L0.429,-0.589C0.435,-0.595 0.442,-0.598 0.45,-0.598C0.455,-0.598 0.458,-0.597 0.461,-0.596C0.474,-0.591 0.48,-0.581 0.48,-0.568L0.48,-0.047L0.42,-0.047L0.42,-0.496L0.298,-0.37Z" style="fill:white;fill-rule:nonzero;"/>
        </g>
        <g transform="matrix(579.359,0,0,579.359,483.897,615.34)">
            <path d="M0.177,-0.598L0.359,-0.598L0.359,-0.537L0.298,-0.537L0.298,-0.109L0.359,-0.109L0.359,-0.048L0.176,-0.049L0.176,-0.11L0.237,-0.109L0.237,-0.537L0.176,-0.537L0.177,-0.598Z" style="fill:white;fill-rule:nonzero;"/>
        </g>
        <g transform="matrix(579.359,0,0,579.359,709.073,617)">
            <path d="M0.48,-0.529L0.438,-0.487L0.385,-0.538L0.281,-0.538L0.117,-0.374L0.117,-0.273L0.282,-0.11L0.384,-0.109L0.436,-0.164L0.48,-0.122L0.419,-0.058C0.413,-0.052 0.406,-0.049 0.397,-0.049L0.27,-0.049C0.263,-0.049 0.256,-0.052 0.249,-0.059L0.066,-0.239C0.06,-0.245 0.057,-0.252 0.057,-0.26L0.057,-0.386C0.057,-0.395 0.06,-0.402 0.065,-0.407L0.248,-0.589C0.254,-0.595 0.261,-0.598 0.269,-0.598L0.397,-0.598C0.406,-0.598 0.413,-0.595 0.418,-0.59L0.48,-0.529Z" style="fill:white;fill-rule:nonzero;"/>
        </g>
        <g transform="matrix(579.359,0,0,579.359,1019.61,617)">
            <path d="M0.278,-0.294L0.47,-0.1C0.476,-0.094 0.479,-0.087 0.479,-0.079L0.479,-0.049L0.419,-0.049L0.419,-0.067L0.192,-0.294L0.114,-0.294L0.115,-0.049L0.054,-0.049L0.054,-0.597L0.389,-0.597C0.397,-0.597 0.404,-0.594 0.41,-0.588L0.471,-0.528C0.477,-0.522 0.48,-0.515 0.48,-0.507L0.48,-0.384C0.48,-0.376 0.477,-0.369 0.471,-0.363L0.412,-0.303C0.406,-0.297 0.399,-0.294 0.391,-0.294L0.278,-0.294ZM0.114,-0.354L0.378,-0.354L0.42,-0.396L0.42,-0.494L0.377,-0.537L0.114,-0.537L0.114,-0.354Z" style="fill:white;fill-rule:nonzero;"/>
        </g>
        <g transform="matrix(579.359,0,0,579.359,1330.15,617)">
            <path d="M0.116,-0.494L0.114,-0.15L0.155,-0.11L0.377,-0.11L0.42,-0.153L0.42,-0.493L0.377,-0.537L0.156,-0.538L0.116,-0.494ZM0.064,-0.526L0.121,-0.588C0.127,-0.595 0.134,-0.598 0.143,-0.598L0.39,-0.597C0.4,-0.597 0.407,-0.594 0.412,-0.588L0.472,-0.526C0.477,-0.521 0.48,-0.514 0.48,-0.505L0.48,-0.14C0.48,-0.131 0.477,-0.124 0.471,-0.119L0.41,-0.059C0.404,-0.053 0.397,-0.05 0.389,-0.05L0.143,-0.05C0.134,-0.05 0.127,-0.053 0.122,-0.058L0.063,-0.115C0.057,-0.121 0.054,-0.128 0.054,-0.137L0.056,-0.506C0.056,-0.514 0.059,-0.521 0.064,-0.526Z" style="fill:white;fill-rule:nonzero;"/>
        </g>
        <g transform="matrix(579.359,0,0,579.359,1640.68,617)">
            <path d="M0.057,-0.598L0.48,-0.598L0.48,-0.537L0.118,-0.537L0.118,-0.354L0.42,-0.354L0.42,-0.293L0.118,-0.293L0.118,-0.049L0.057,-0.049L0.057,-0.598Z" style="fill:white;fill-rule:nonzero;"/>
        </g>
        <g transform="matrix(579.359,0,0,579.359,1951.22,617)">
            <path d="M0.278,-0.294L0.47,-0.1C0.476,-0.094 0.479,-0.087 0.479,-0.079L0.479,-0.049L0.419,-0.049L0.419,-0.067L0.192,-0.294L0.114,-0.294L0.115,-0.049L0.054,-0.049L0.054,-0.597L0.389,-0.597C0.397,-0.597 0.404,-0.594 0.41,-0.588L0.471,-0.528C0.477,-0.522 0.48,-0.515 0.48,-0.507L0.48,-0.384C0.48,-0.376 0.477,-0.369 0.471,-0.363L0.412,-0.303C0.406,-0.297 0.399,-0.294 0.391,-0.294L0.278,-0.294ZM0.114,-0.354L0.378,-0.354L0.42,-0.396L0.42,-0.494L0.377,-0.537L0.114,-0.537L0.114,-0.354Z" style="fill:white;fill-rule:nonzero;"/>
        </g>
        <g transform="matrix(579.359,0,0,579.359,2261.76,617)">
            <path d="M0.116,-0.494L0.114,-0.15L0.155,-0.11L0.377,-0.11L0.42,-0.153L0.42,-0.493L0.377,-0.537L0.156,-0.538L0.116,-0.494ZM0.064,-0.526L0.121,-0.588C0.127,-0.595 0.134,-0.598 0.143,-0.598L0.39,-0.597C0.4,-0.597 0.407,-0.594 0.412,-0.588L0.472,-0.526C0.477,-0.521 0.48,-0.514 0.48,-0.505L0.48,-0.14C0.48,-0.131 0.477,-0.124 0.471,-0.119L0.41,-0.059C0.404,-0.053 0.397,-0.05 0.389,-0.05L0.143,-0.05C0.134,-0.05 0.127,-0.053 0.122,-0.058L0.063,-0.115C0.057,-0.121 0.054,-0.128 0.054,-0.137L0.056,-0.506C0.056,-0.514 0.059,-0.521 0.064,-0.526Z" style="fill:white;fill-rule:nonzero;"/>
        </g>
        <g transform="matrix(579.359,0,0,579.359,2572.29,617)">
            <path d="M0.054,-0.049L0.054,-0.598L0.115,-0.598L0.42,-0.292L0.42,-0.598L0.48,-0.598L0.48,-0.05L0.42,-0.05L0.42,-0.2L0.115,-0.508L0.115,-0.048L0.054,-0.049Z" style="fill:white;fill-rule:nonzero;"/>
        </g>
        <g transform="matrix(579.359,0,0,579.359,2882.83,617)">
            <path d="M0.054,-0.598L0.48,-0.598L0.48,-0.537L0.297,-0.537L0.297,-0.049L0.236,-0.049L0.236,-0.537L0.054,-0.537L0.054,-0.598Z" style="fill:white;fill-rule:nonzero;"/>
        </g>
        <g transform="matrix(579.359,0,0,579.359,3193.37,617)">
            <path d="M0.057,-0.598L0.48,-0.598L0.48,-0.537L0.118,-0.537L0.118,-0.354L0.358,-0.354L0.358,-0.293L0.118,-0.293L0.118,-0.109L0.48,-0.109L0.48,-0.049L0.057,-0.049L0.057,-0.598Z" style="fill:white;fill-rule:nonzero;"/>
        </g>
        <g transform="matrix(579.359,0,0,579.359,3503.9,617)">
            <path d="M0.054,-0.049L0.054,-0.598L0.115,-0.598L0.42,-0.292L0.42,-0.598L0.48,-0.598L0.48,-0.05L0.42,-0.05L0.42,-0.2L0.115,-0.508L0.115,-0.048L0.054,-0.049Z" style="fill:white;fill-rule:nonzero;"/>
        </g>
        <g transform="matrix(579.359,0,0,579.359,3814.44,617)">
            <path d="M0.179,-0.11L0.317,-0.11L0.42,-0.213L0.42,-0.433L0.317,-0.537L0.179,-0.538L0.179,-0.11ZM0.118,-0.538L0.057,-0.538L0.057,-0.598L0.33,-0.597C0.338,-0.597 0.345,-0.594 0.351,-0.588L0.471,-0.466C0.477,-0.46 0.48,-0.453 0.48,-0.445L0.48,-0.201C0.48,-0.192 0.477,-0.185 0.471,-0.179L0.35,-0.059C0.344,-0.053 0.337,-0.05 0.329,-0.05L0.057,-0.049L0.057,-0.109L0.118,-0.109L0.118,-0.538Z" style="fill:white;fill-rule:nonzero;"/>
        </g>
        <g transform="matrix(579.359,0,0,579.359,4124.98,617)">
            <path d="M0.42,-0.498L0.38,-0.538L0.16,-0.538L0.117,-0.495L0.117,-0.463L0.465,-0.225C0.474,-0.219 0.478,-0.211 0.478,-0.2L0.478,-0.141C0.478,-0.134 0.475,-0.128 0.47,-0.121L0.413,-0.059C0.406,-0.052 0.399,-0.049 0.391,-0.049L0.145,-0.048C0.137,-0.048 0.13,-0.051 0.124,-0.057L0.063,-0.118C0.057,-0.124 0.054,-0.131 0.054,-0.139L0.054,-0.17L0.114,-0.17L0.114,-0.151L0.157,-0.108L0.378,-0.109L0.418,-0.153L0.418,-0.184L0.07,-0.422C0.061,-0.428 0.057,-0.436 0.057,-0.447L0.057,-0.507C0.057,-0.515 0.06,-0.522 0.066,-0.528L0.127,-0.589C0.133,-0.595 0.14,-0.598 0.148,-0.598L0.392,-0.598C0.4,-0.598 0.407,-0.595 0.413,-0.589L0.471,-0.531C0.477,-0.525 0.48,-0.518 0.48,-0.51L0.48,-0.478L0.42,-0.478L0.42,-0.498Z" style="fill:white;fill-rule:nonzero;"/>
        </g>
    </g>
    <g transform="matrix(1.08073,0,0,1.08073,258.087,-271.948)">
        <text x="285.364px" y="692px" style="font-family:'Code-Bold', 'Code Bold';font-weight:700;font-size:131.228px;fill:white;">W<tspan x="394.415px 468.296px 534.567px 599.394px 627.476px 673.669px 782.72px 856.601px " y="692px 692px 692px 692px 692px 692px 692px 692px ">HAT, WHY</tspan> AND H<tspan x="1339.78px 1436.5px 1548.17px " y="692px 692px 692px ">OW?</tspan></text>
    </g>
</svg>
