<?xml version="1.0" encoding="UTF-8" standalone="no"?>
<!DOCTYPE svg PUBLIC "-//W3C//DTD SVG 1.1//EN" "http://www.w3.org/Graphics/SVG/1.1/DTD/svg11.dtd">
<svg width="100%" height="100%" viewBox="0 0 746 213" version="1.1" xmlns="http://www.w3.org/2000/svg" xmlns:xlink="http://www.w3.org/1999/xlink" xml:space="preserve" xmlns:serif="http://www.serif.com/" style="fill-rule:evenodd;clip-rule:evenodd;stroke-linejoin:round;stroke-miterlimit:2;">
    <g transform="matrix(4.16667,0,0,4.16667,0,0)">
        <path d="M60.884,19.455L54.056,29.465L59.297,37.311L72.989,37.311L60.884,19.455Z" style="fill:url(#_Linear1);"/>
        <path d="M52.958,27.822L59.778,17.823L53.448,8.489L47.982,0.424L34.653,0.424L46.619,18.336L33.464,37.311L46.485,37.311L52.958,27.822Z" style="fill:url(#_Linear2);"/>
        <path d="M60.888,16.195L71.645,0.424L59.039,0.424L54.568,6.873L60.888,16.195Z" style="fill:url(#_Linear3);"/>
        <path d="M95.714,27.822L102.537,17.823L96.208,8.489L90.741,0.424L77.412,0.424L89.377,18.336L76.222,37.311L89.243,37.311L95.714,27.822Z" style="fill:url(#_Linear4);"/>
        <path d="M103.642,19.455L115.748,37.311L103.642,19.455Z" style="fill:rgb(109,111,113);fill-rule:nonzero;"/>
        <path d="M103.648,16.195L114.404,0.424L101.798,0.424L97.327,6.873L103.648,16.195Z" style="fill:url(#_Linear5);"/>
        <path d="M103.642,19.455L96.812,29.465L102.056,37.311L115.748,37.311L103.642,19.455Z" style="fill:url(#_Linear6);"/>
        <path d="M35.743,30.763L24.695,0.424L13.588,0.424L0,37.311L11.417,37.311L13.071,32.042L13.093,32.042L15.605,24.137L15.551,24.137L19.116,12.772L19.218,12.772L22.526,24.137L22.521,24.137L26.349,37.311L31.276,37.311L35.743,30.763Z" style="fill:url(#_Linear7);"/>
        <path d="M114.416,0.407L114.08,0.407L114.08,0.899L114.416,0.407Z" style="fill:url(#_Linear8);"/>
        <path d="M144.613,9.862L144.613,0.407L116.634,0.407L114.08,4.15L114.08,31.543L117.917,37.294L147.914,37.294L141.511,27.736L125.447,27.736L125.447,23.242L142.859,23.242L142.859,14.459L125.447,14.459L125.447,9.862L144.613,9.862Z" style="fill:url(#_Linear9);"/>
        <path d="M168.052,14.108L168.052,14.068L160.154,14.068C159.031,14.068 158.119,13.157 158.119,12.036C158.119,10.914 159.031,10.003 160.154,10.003L178.55,10.003L178.55,0.403L160.154,0.403C153.738,0.403 148.519,5.622 148.519,12.036C148.519,18.449 153.738,23.667 160.154,23.667L167.291,23.667C168.412,23.667 169.324,24.58 169.324,25.7C169.324,26.821 168.412,27.734 167.291,27.734L143.974,27.734L150.38,37.333L167.291,37.333C173.707,37.333 178.925,32.116 178.925,25.7C178.925,19.542 174.111,14.502 168.052,14.108Z" style="fill:url(#_Linear10);"/>
        <rect x="82.587" y="43.195" width="1.677" height="7.624" style="fill:rgb(91,96,95);fill-rule:nonzero;"/>
        <path d="M87.958,44.605L85.673,44.605L85.673,43.195L91.919,43.195L91.919,44.605L89.634,44.605L89.634,50.819L87.958,50.819L87.958,44.605Z" style="fill:rgb(91,96,95);fill-rule:nonzero;"/>
        <path d="M102.287,45.492C102.074,44.413 101.208,43.869 100.152,43.869C98.336,43.869 97.567,45.363 97.567,46.954C97.567,48.694 98.336,50.146 100.162,50.146C101.497,50.146 102.265,49.206 102.362,47.947L103.376,47.947C103.184,49.847 102,51 100.077,51C97.706,51 96.553,49.249 96.553,47.029C96.553,44.818 97.813,43.013 100.162,43.013C101.753,43.013 103.066,43.869 103.301,45.492L102.287,45.492Z" style="fill:rgb(91,96,95);fill-rule:nonzero;"/>
        <path d="M108.394,50.146C110.251,50.146 111.031,48.544 111.031,47.007C111.031,45.47 110.251,43.869 108.394,43.869C106.537,43.869 105.757,45.47 105.757,47.007C105.757,48.544 106.537,50.146 108.394,50.146ZM108.394,43.013C110.818,43.013 112.045,44.935 112.045,47.007C112.045,49.078 110.818,51 108.394,51C105.97,51 104.743,49.078 104.743,47.007C104.743,44.935 105.97,43.013 108.394,43.013Z" style="fill:rgb(91,96,95);fill-rule:nonzero;"/>
        <path d="M113.807,43.195L114.885,43.195L118.9,49.377L118.921,49.377L118.921,43.195L119.882,43.195L119.882,50.819L118.771,50.819L114.79,44.701L114.767,44.701L114.767,50.819L113.807,50.819L113.807,43.195Z" style="fill:rgb(91,96,95);fill-rule:nonzero;"/>
        <path d="M126.47,45.427C126.352,44.337 125.626,43.869 124.58,43.869C123.726,43.869 122.871,44.177 122.871,45.17C122.871,46.111 124.088,46.249 125.316,46.527C126.534,46.804 127.751,47.232 127.751,48.726C127.751,50.349 126.16,51 124.772,51C123.064,51 121.623,50.167 121.623,48.31L122.583,48.31C122.583,49.591 123.651,50.146 124.804,50.146C125.722,50.146 126.736,49.858 126.736,48.758C126.736,47.711 125.519,47.531 124.302,47.263C123.085,46.996 121.857,46.644 121.857,45.246C121.857,43.697 123.234,43.013 124.623,43.013C126.181,43.013 127.367,43.75 127.43,45.427L126.47,45.427Z" style="fill:rgb(91,96,95);fill-rule:nonzero;"/>
        <path d="M135.598,48.064C135.598,49.986 134.499,51 132.597,51C130.632,51 129.47,50.093 129.47,48.064L129.47,43.195L130.483,43.195L130.483,48.064C130.483,49.41 131.253,50.146 132.597,50.146C133.879,50.146 134.583,49.41 134.583,48.064L134.583,43.195L135.598,43.195L135.598,48.064Z" style="fill:rgb(91,96,95);fill-rule:nonzero;"/>
        <path d="M137.755,43.195L138.769,43.195L138.769,49.964L142.805,49.964L142.805,50.819L137.755,50.819L137.755,43.195Z" style="fill:rgb(91,96,95);fill-rule:nonzero;"/>
        <path d="M144.972,44.05L142.431,44.05L142.431,43.195L148.527,43.195L148.527,44.05L145.986,44.05L145.986,50.819L144.972,50.819L144.972,44.05Z" style="fill:rgb(91,96,95);fill-rule:nonzero;"/>
        <path d="M150.236,47.669L152.82,47.669L151.549,44.113L151.529,44.113L150.236,47.669ZM150.994,43.195L152.115,43.195L155.093,50.819L153.973,50.819L153.14,48.523L149.916,48.523L149.062,50.819L148.015,50.819L150.994,43.195Z" style="fill:rgb(91,96,95);fill-rule:nonzero;"/>
        <path d="M156.365,43.195L157.443,43.195L161.458,49.377L161.478,49.377L161.478,43.195L162.44,43.195L162.44,50.819L161.33,50.819L157.347,44.701L157.326,44.701L157.326,50.819L156.365,50.819L156.365,43.195Z" style="fill:rgb(91,96,95);fill-rule:nonzero;"/>
        <path d="M169.978,45.492C169.763,44.413 168.9,43.869 167.842,43.869C166.027,43.869 165.258,45.363 165.258,46.954C165.258,48.694 166.027,50.146 167.853,50.146C169.187,50.146 169.957,49.206 170.052,47.947L171.066,47.947C170.875,49.847 169.689,51 167.767,51C165.397,51 164.244,49.249 164.244,47.029C164.244,44.818 165.503,43.013 167.853,43.013C169.443,43.013 170.757,43.869 170.992,45.492L169.978,45.492Z" style="fill:rgb(91,96,95);fill-rule:nonzero;"/>
        <path d="M176.009,47.701L176.009,50.819L174.996,50.819L174.996,47.701L172.048,43.195L173.255,43.195L175.541,46.826L177.771,43.195L178.925,43.195L176.009,47.701Z" style="fill:rgb(91,96,95);fill-rule:nonzero;"/>
    </g>
    <defs>
        <linearGradient id="_Linear1" x1="0" y1="0" x2="1" y2="0" gradientUnits="userSpaceOnUse" gradientTransform="matrix(-5.47797e-06,-125.321,125.321,-5.47797e-06,63.5229,126.521)"><stop offset="0" style="stop-color:white;stop-opacity:1"/><stop offset="1" style="stop-color:rgb(91,96,95);stop-opacity:1"/></linearGradient>
        <linearGradient id="_Linear2" x1="0" y1="0" x2="1" y2="0" gradientUnits="userSpaceOnUse" gradientTransform="matrix(-2.04696e-06,-46.8289,46.8289,-2.04696e-06,46.6211,39.5019)"><stop offset="0" style="stop-color:rgb(211,91,32);stop-opacity:1"/><stop offset="1" style="stop-color:rgb(240,172,29);stop-opacity:1"/></linearGradient>
        <linearGradient id="_Linear3" x1="0" y1="0" x2="1" y2="0" gradientUnits="userSpaceOnUse" gradientTransform="matrix(-5.47812e-06,-125.325,125.325,-5.47812e-06,63.1069,126.525)"><stop offset="0" style="stop-color:white;stop-opacity:1"/><stop offset="1" style="stop-color:rgb(91,96,95);stop-opacity:1"/></linearGradient>
        <linearGradient id="_Linear4" x1="0" y1="0" x2="1" y2="0" gradientUnits="userSpaceOnUse" gradientTransform="matrix(-2.04696e-06,-46.8289,46.8289,-2.04696e-06,89.3799,39.5019)"><stop offset="0" style="stop-color:rgb(211,91,32);stop-opacity:1"/><stop offset="1" style="stop-color:rgb(240,172,29);stop-opacity:1"/></linearGradient>
        <linearGradient id="_Linear5" x1="0" y1="0" x2="1" y2="0" gradientUnits="userSpaceOnUse" gradientTransform="matrix(-5.47812e-06,-125.325,125.325,-5.47812e-06,105.865,126.525)"><stop offset="0" style="stop-color:white;stop-opacity:1"/><stop offset="1" style="stop-color:rgb(91,96,95);stop-opacity:1"/></linearGradient>
        <linearGradient id="_Linear6" x1="0" y1="0" x2="1" y2="0" gradientUnits="userSpaceOnUse" gradientTransform="matrix(-5.47797e-06,-125.321,125.321,-5.47797e-06,106.28,126.521)"><stop offset="0" style="stop-color:white;stop-opacity:1"/><stop offset="1" style="stop-color:rgb(91,96,95);stop-opacity:1"/></linearGradient>
        <linearGradient id="_Linear7" x1="0" y1="0" x2="1" y2="0" gradientUnits="userSpaceOnUse" gradientTransform="matrix(-5.47804e-06,-125.323,125.323,-5.47804e-06,17.8721,126.523)"><stop offset="0" style="stop-color:white;stop-opacity:1"/><stop offset="1" style="stop-color:rgb(91,96,95);stop-opacity:1"/></linearGradient>
        <linearGradient id="_Linear8" x1="0" y1="0" x2="1" y2="0" gradientUnits="userSpaceOnUse" gradientTransform="matrix(-1.51426e-06,-34.6422,34.6422,-1.51426e-06,114.248,39.123)"><stop offset="0" style="stop-color:rgb(147,149,152);stop-opacity:1"/><stop offset="1" style="stop-color:rgb(105,122,131);stop-opacity:1"/></linearGradient>
        <linearGradient id="_Linear9" x1="0" y1="0" x2="1" y2="0" gradientUnits="userSpaceOnUse" gradientTransform="matrix(-5.47805e-06,-125.323,125.323,-5.47805e-06,130.997,126.523)"><stop offset="0" style="stop-color:white;stop-opacity:1"/><stop offset="1" style="stop-color:rgb(91,96,95);stop-opacity:1"/></linearGradient>
        <linearGradient id="_Linear10" x1="0" y1="0" x2="1" y2="0" gradientUnits="userSpaceOnUse" gradientTransform="matrix(-5.47804e-06,-125.323,125.323,-5.47804e-06,161.45,126.523)"><stop offset="0" style="stop-color:white;stop-opacity:1"/><stop offset="1" style="stop-color:rgb(91,96,95);stop-opacity:1"/></linearGradient>
    </defs>
</svg>
